<svg width="734" height="240" fill="none" xmlns="http://www.w3.org/2000/svg"><path fill="#fff" d="M0 0h734v240H0z"/><path d="M44.1 99h-2.304l-.96-7.36h-.192l-.96 7.36H37.38l-1.248-7.936h1.28l1.056 7.36h.192l.928-7.36h2.304l.928 7.36h.192l1.056-7.36h1.28L44.1 99zm3.845-3.584c.032.79.277 1.424.736 1.904.458.48 1.098.72 1.92.72.373 0 .698-.043.976-.128.277-.085.512-.203.704-.352.202-.15.362-.32.48-.512.128-.203.229-.416.304-.64l1.184.32A3.529 3.529 0 0153 98.536c-.598.459-1.408.688-2.432.688A4.184 4.184 0 0149 98.936a3.622 3.622 0 01-1.216-.848 3.905 3.905 0 01-.8-1.296 4.618 4.618 0 01-.288-1.664v-.384c0-.555.096-1.072.288-1.552.202-.48.48-.89.832-1.232a3.71 3.71 0 011.232-.816c.48-.203.997-.304 1.552-.304.65 0 1.21.123 1.68.368.48.235.869.528 1.168.88.309.352.533.736.672 1.152.149.416.224.8.224 1.152v1.024h-6.4zm2.656-3.392c-.352 0-.683.059-.992.176a2.498 2.498 0 00-.8.464c-.224.203-.411.443-.56.72-.139.267-.23.56-.272.88h5.12a2.224 2.224 0 00-.256-.928 2.126 2.126 0 00-.56-.704 2.466 2.466 0 00-.784-.448 2.558 2.558 0 00-.896-.16zM57.789 99h-1.248V87.8h1.248v4.512h.192c.278-.48.662-.843 1.152-1.088a3.407 3.407 0 011.6-.384c.491 0 .955.09 1.393.272.437.181.82.443 1.152.784.34.341.608.763.8 1.264.202.501.303 1.072.303 1.712v.32c0 .65-.096 1.227-.287 1.728a3.56 3.56 0 01-.8 1.264c-.331.341-.72.603-1.168.784-.448.17-.923.256-1.424.256-.256 0-.518-.032-.785-.096a3.25 3.25 0 01-.767-.256 3.956 3.956 0 01-.657-.448 2.506 2.506 0 01-.512-.64h-.192V99zm2.657-.96c.384 0 .736-.064 1.056-.192.32-.139.597-.33.831-.576.246-.245.433-.544.56-.896.14-.352.209-.747.209-1.184v-.32c0-.427-.07-.81-.208-1.152a2.413 2.413 0 00-.56-.896 2.387 2.387 0 00-.849-.592 2.587 2.587 0 00-1.04-.208c-.373 0-.72.075-1.04.224-.32.139-.602.336-.848.592a2.875 2.875 0 00-.56.928 3.16 3.16 0 00-.208 1.168v.192c0 .437.07.837.209 1.2.138.352.325.656.56.912.245.256.528.453.848.592.32.139.666.208 1.04.208zm15.897-6.976h2.448v-2.016c0-.363.112-.661.336-.896.235-.235.534-.352.896-.352h3.136v1.152h-2.688c-.288 0-.432.16-.432.48v1.632h3.312v1.152H80.04V99h-1.248v-6.784h-2.448v-1.152zm17.365 4.064c0 .661-.112 1.248-.336 1.76a3.871 3.871 0 01-.864 1.28 3.73 3.73 0 01-1.28.784c-.48.181-.981.272-1.504.272-.533 0-1.04-.09-1.52-.272a3.765 3.765 0 01-1.264-.784 4.081 4.081 0 01-.88-1.28c-.213-.512-.32-1.099-.32-1.76v-.192c0-.65.107-1.227.32-1.728.224-.512.517-.944.88-1.296.374-.352.8-.619 1.28-.8.48-.181.981-.272 1.504-.272s1.024.09 1.504.272c.48.181.901.448 1.264.8.373.352.667.784.88 1.296.224.501.336 1.077.336 1.728v.192zm-3.984 2.912c.384 0 .736-.064 1.056-.192.33-.139.619-.336.864-.592.245-.256.438-.56.576-.912.139-.363.208-.768.208-1.216v-.192c0-.427-.07-.816-.208-1.168a2.731 2.731 0 00-.576-.928 2.548 2.548 0 00-.864-.592 2.536 2.536 0 00-1.056-.224c-.373 0-.725.075-1.056.224a2.55 2.55 0 00-.864.592 2.734 2.734 0 00-.576.928 3.162 3.162 0 00-.208 1.168v.192c0 .448.07.853.208 1.216.139.352.33.656.576.912.245.256.528.453.848.592.33.128.688.192 1.072.192zm7.541.96h-1.248v-7.936h1.248v1.344h.192c.49-1.045 1.344-1.568 2.56-1.568.917 0 1.648.288 2.192.864.544.565.816 1.419.816 2.56V99h-1.248v-4.48c0-.832-.187-1.456-.56-1.872-.373-.416-.88-.624-1.52-.624-.757 0-1.355.261-1.792.784-.427.512-.64 1.2-.64 2.064V99zm8.277-7.936h2.496V87.8h1.248v3.264h3.072v1.152h-3.072v5.152c0 .32.144.48.432.48h2.256V99h-2.704c-.363 0-.661-.117-.896-.352-.224-.235-.336-.533-.336-.896v-5.536h-2.496v-1.152zm19.866 6.784h2.88v-8.896h-2.784V87.8h4.032v10.048h2.88V99h-7.008v-1.152zm17.285-2.72c0 .661-.112 1.248-.336 1.76a3.893 3.893 0 01-.864 1.28c-.363.341-.79.603-1.28.784-.48.181-.982.272-1.504.272-.534 0-1.04-.09-1.52-.272a3.773 3.773 0 01-1.265-.784 4.089 4.089 0 01-.879-1.28c-.214-.512-.32-1.099-.32-1.76v-.192c0-.65.106-1.227.32-1.728.224-.512.517-.944.879-1.296a3.822 3.822 0 011.281-.8 4.22 4.22 0 011.504-.272c.522 0 1.024.09 1.504.272.48.181.901.448 1.264.8.373.352.666.784.88 1.296.224.501.336 1.077.336 1.728v.192zm-3.984 2.912c.384 0 .736-.064 1.056-.192.33-.139.618-.336.864-.592.245-.256.437-.56.576-.912.138-.363.208-.768.208-1.216v-.192c0-.427-.07-.816-.208-1.168a2.743 2.743 0 00-.576-.928 2.562 2.562 0 00-.864-.592 2.539 2.539 0 00-1.056-.224c-.374 0-.726.075-1.056.224a2.542 2.542 0 00-.864.592 2.713 2.713 0 00-.576.928 3.154 3.154 0 00-.208 1.168v.192c0 .448.069.853.208 1.216.138.352.33.656.576.912.245.256.528.453.848.592.33.128.688.192 1.072.192zm12.052-.384h-.192c-.256.533-.613.928-1.072 1.184a2.824 2.824 0 01-1.424.384 4.058 4.058 0 01-1.456-.256 3.538 3.538 0 01-1.184-.784 3.872 3.872 0 01-.784-1.28c-.192-.501-.288-1.083-.288-1.744v-.256c0-.65.096-1.227.288-1.728.192-.501.454-.923.784-1.264a3.427 3.427 0 011.184-.8 3.761 3.761 0 011.424-.272c.544 0 1.035.123 1.472.368.448.235.8.603 1.056 1.104h.192v-1.248h1.248v6.304c0 .32.144.48.432.48h.4V99h-.848c-.362 0-.661-.117-.896-.352-.224-.235-.336-.533-.336-.896v-.096zm-2.56.384c.374 0 .715-.07 1.024-.208.32-.139.592-.336.816-.592.224-.256.4-.56.528-.912.128-.363.192-.763.192-1.2v-.192c0-.427-.064-.816-.192-1.168a2.663 2.663 0 00-.544-.928 2.267 2.267 0 00-.816-.592 2.286 2.286 0 00-1.008-.224c-.373 0-.714.07-1.024.208a2.474 2.474 0 00-.816.592c-.224.245-.4.55-.528.912a3.396 3.396 0 00-.192 1.168v.256c0 .907.235 1.616.704 2.128.48.501 1.099.752 1.856.752zm12.741-.256h-.192a2.237 2.237 0 01-.496.64c-.192.181-.405.33-.64.448a2.754 2.754 0 01-.72.256 3.032 3.032 0 01-.736.096c-.533 0-1.029-.09-1.488-.272a3.672 3.672 0 01-1.216-.784 3.757 3.757 0 01-.816-1.264c-.192-.512-.288-1.093-.288-1.744v-.256c0-.64.102-1.21.304-1.712.203-.512.475-.939.816-1.28a3.398 3.398 0 011.2-.8 3.926 3.926 0 011.456-.272c.544 0 1.051.123 1.52.368.48.235.848.603 1.104 1.104h.192V87.8h1.248V99h-1.248v-1.216zm-2.656.256c.374 0 .72-.07 1.04-.208.32-.139.598-.336.832-.592.246-.256.438-.56.576-.912.139-.363.208-.763.208-1.2v-.192c0-.427-.069-.816-.208-1.168a2.713 2.713 0 00-.576-.928 2.378 2.378 0 00-.848-.592 2.391 2.391 0 00-1.024-.224c-.373 0-.725.07-1.056.208a2.6 2.6 0 00-.848.592c-.234.256-.421.56-.56.912a3.396 3.396 0 00-.192 1.168v.256c0 .448.064.848.192 1.2.139.352.326.656.56.912.246.245.528.437.848.576.32.128.672.192 1.056.192zm7.957-4.928c0 .384.16.677.48.88.331.203.928.336 1.792.4.928.075 1.632.299 2.112.672.491.363.736.896.736 1.6v.096a2.23 2.23 0 01-.88 1.808 2.691 2.691 0 01-.992.48 4.31 4.31 0 01-1.264.176c-.619 0-1.152-.08-1.6-.24a3.615 3.615 0 01-1.104-.656 2.889 2.889 0 01-.656-.928 3.186 3.186 0 01-.256-1.056l1.184-.288c.053.608.288 1.099.704 1.472.416.363.971.544 1.664.544.587 0 1.056-.112 1.408-.336.363-.235.544-.56.544-.976 0-.448-.176-.768-.528-.96-.352-.192-.923-.315-1.712-.368-.917-.064-1.621-.277-2.112-.64-.491-.363-.736-.89-.736-1.584v-.096c0-.373.08-.699.24-.976.16-.288.373-.528.64-.72.277-.192.587-.336.928-.432a3.941 3.941 0 011.072-.144c.523 0 .981.075 1.376.224.395.139.725.325.992.56.267.224.469.485.608.784.149.299.245.597.288.896l-1.184.288c-.053-.512-.261-.912-.624-1.2-.352-.288-.816-.432-1.392-.432-.224 0-.443.027-.656.08a1.747 1.747 0 00-.544.208c-.16.096-.288.219-.384.368a.85.85 0 00-.144.496z" fill="#2D2A50"/><path d="M378.256 99h-2.304l-.96-7.36h-.192l-.96 7.36h-2.304l-1.248-7.936h1.28l1.056 7.36h.192l.928-7.36h2.304l.928 7.36h.192l1.056-7.36h1.28L378.256 99zm3.845-3.584c.032.79.277 1.424.736 1.904.459.48 1.099.72 1.92.72.373 0 .699-.043.976-.128s.512-.203.704-.352c.203-.15.363-.32.48-.512.128-.203.229-.416.304-.64l1.184.32a3.529 3.529 0 01-1.248 1.808c-.597.459-1.408.688-2.432.688a4.185 4.185 0 01-1.568-.288 3.621 3.621 0 01-1.216-.848 3.91 3.91 0 01-.8-1.296 4.618 4.618 0 01-.288-1.664v-.384c0-.555.096-1.072.288-1.552a3.7 3.7 0 01.832-1.232 3.713 3.713 0 011.232-.816c.48-.203.997-.304 1.552-.304.651 0 1.211.123 1.68.368.48.235.869.528 1.168.88.309.352.533.736.672 1.152.149.416.224.8.224 1.152v1.024h-6.4zm2.656-3.392c-.352 0-.683.059-.992.176a2.497 2.497 0 00-.8.464 2.66 2.66 0 00-.56.72 2.65 2.65 0 00-.272.88h5.12a2.225 2.225 0 00-.256-.928 2.128 2.128 0 00-.56-.704 2.463 2.463 0 00-.784-.448 2.56 2.56 0 00-.896-.16zM391.946 99h-1.248V87.8h1.248v4.512h.192c.277-.48.661-.843 1.152-1.088a3.405 3.405 0 011.6-.384c.49 0 .954.09 1.392.272.437.181.821.443 1.152.784.341.341.608.763.8 1.264.202.501.304 1.072.304 1.712v.32c0 .65-.096 1.227-.288 1.728a3.564 3.564 0 01-.8 1.264c-.331.341-.72.603-1.168.784-.448.17-.923.256-1.424.256-.256 0-.518-.032-.784-.096a3.24 3.24 0 01-.768-.256 3.915 3.915 0 01-.656-.448 2.485 2.485 0 01-.512-.64h-.192V99zm2.656-.96c.384 0 .736-.064 1.056-.192.32-.139.597-.33.832-.576.245-.245.432-.544.56-.896a3.22 3.22 0 00.208-1.184v-.32c0-.427-.07-.81-.208-1.152a2.417 2.417 0 00-.56-.896 2.396 2.396 0 00-.848-.592 2.588 2.588 0 00-1.04-.208c-.374 0-.72.075-1.04.224-.32.139-.603.336-.848.592a2.858 2.858 0 00-.56.928 3.154 3.154 0 00-.208 1.168v.192c0 .437.069.837.208 1.2.138.352.325.656.56.912.245.256.528.453.848.592.32.139.666.208 1.04.208zm15.898-6.976h2.448v-2.016c0-.363.112-.661.336-.896.234-.235.533-.352.896-.352h3.136v1.152h-2.688c-.288 0-.432.16-.432.48v1.632h3.312v1.152h-3.312V99h-1.248v-6.784H410.5v-1.152zm17.364 4.064c0 .661-.112 1.248-.336 1.76a3.862 3.862 0 01-.864 1.28 3.722 3.722 0 01-1.28.784 4.22 4.22 0 01-1.504.272c-.533 0-1.04-.09-1.52-.272a3.768 3.768 0 01-1.264-.784 4.091 4.091 0 01-.88-1.28c-.213-.512-.32-1.099-.32-1.76v-.192c0-.65.107-1.227.32-1.728.224-.512.518-.944.88-1.296.374-.352.8-.619 1.28-.8.48-.181.982-.272 1.504-.272.523 0 1.024.09 1.504.272.48.181.902.448 1.264.8.374.352.667.784.88 1.296.224.501.336 1.077.336 1.728v.192zm-3.984 2.912c.384 0 .736-.064 1.056-.192.331-.139.619-.336.864-.592.246-.256.438-.56.576-.912.139-.363.208-.768.208-1.216v-.192c0-.427-.069-.816-.208-1.168a2.713 2.713 0 00-.576-.928 2.542 2.542 0 00-.864-.592 2.532 2.532 0 00-1.056-.224c-.373 0-.725.075-1.056.224-.33.139-.618.336-.864.592a2.743 2.743 0 00-.576.928 3.175 3.175 0 00-.208 1.168v.192c0 .448.07.853.208 1.216.139.352.331.656.576.912a2.6 2.6 0 00.848.592c.331.128.688.192 1.072.192zm7.541.96h-1.248v-7.936h1.248v1.344h.192c.491-1.045 1.344-1.568 2.56-1.568.918 0 1.648.288 2.192.864.544.565.816 1.419.816 2.56V99h-1.248v-4.48c0-.832-.186-1.456-.56-1.872-.373-.416-.88-.624-1.52-.624-.757 0-1.354.261-1.792.784-.426.512-.64 1.2-.64 2.064V99zm8.277-7.936h2.496V87.8h1.248v3.264h3.072v1.152h-3.072v5.152c0 .32.144.48.432.48h2.256V99h-2.704c-.363 0-.661-.117-.896-.352-.224-.235-.336-.533-.336-.896v-5.536h-2.496v-1.152z" fill="#F52963"/><path d="M199.312 91.064h2.448v-2.016c0-.363.112-.661.336-.896.235-.235.533-.352.896-.352h3.136v1.152h-2.688c-.288 0-.432.16-.432.48v1.632h3.312v1.152h-3.312V99h-1.248v-6.784h-2.448v-1.152zm15.637 6.592h-.192c-.256.533-.613.928-1.072 1.184a2.827 2.827 0 01-1.424.384 4.054 4.054 0 01-1.456-.256 3.528 3.528 0 01-1.184-.784 3.856 3.856 0 01-.784-1.28c-.192-.501-.288-1.083-.288-1.744v-.256c0-.65.096-1.227.288-1.728.192-.501.453-.923.784-1.264a3.418 3.418 0 011.184-.8 3.761 3.761 0 011.424-.272c.544 0 1.035.123 1.472.368.448.235.8.603 1.056 1.104h.192v-1.248h1.248v6.304c0 .32.144.48.432.48h.4V99h-.848c-.363 0-.661-.117-.896-.352-.224-.235-.336-.533-.336-.896v-.096zm-2.56.384c.373 0 .715-.07 1.024-.208.32-.139.592-.336.816-.592.224-.256.4-.56.528-.912.128-.363.192-.763.192-1.2v-.192c0-.427-.064-.816-.192-1.168a2.663 2.663 0 00-.544-.928 2.267 2.267 0 00-.816-.592 2.286 2.286 0 00-1.008-.224c-.373 0-.715.07-1.024.208a2.474 2.474 0 00-.816.592c-.224.245-.4.55-.528.912a3.396 3.396 0 00-.192 1.168v.256c0 .907.235 1.616.704 2.128.48.501 1.099.752 1.856.752zm6.597-.192h2.88v-8.896h-2.784V87.8h4.032v10.048h2.88V99h-7.008v-1.152zm9.797 0h2.88v-8.896h-2.784V87.8h4.032v10.048h2.88V99h-7.008v-1.152zM239.539 99h-1.247V87.8h1.247v4.512h.193c.277-.48.661-.843 1.152-1.088a3.405 3.405 0 011.6-.384c.49 0 .954.09 1.392.272.437.181.821.443 1.152.784.341.341.608.763.8 1.264.202.501.304 1.072.304 1.712v.32c0 .65-.096 1.227-.288 1.728a3.564 3.564 0 01-.8 1.264c-.331.341-.72.603-1.168.784-.448.17-.923.256-1.424.256-.256 0-.518-.032-.784-.096a3.24 3.24 0 01-.768-.256 3.915 3.915 0 01-.656-.448 2.485 2.485 0 01-.512-.64h-.193V99zm2.657-.96c.384 0 .736-.064 1.056-.192.32-.139.597-.33.832-.576.245-.245.432-.544.56-.896a3.22 3.22 0 00.208-1.184v-.32c0-.427-.07-.81-.208-1.152a2.417 2.417 0 00-.56-.896 2.396 2.396 0 00-.848-.592 2.588 2.588 0 00-1.04-.208c-.374 0-.72.075-1.04.224-.32.139-.603.336-.848.592a2.858 2.858 0 00-.56.928 3.154 3.154 0 00-.209 1.168v.192c0 .437.07.837.209 1.2.138.352.325.656.56.912.245.256.528.453.848.592.32.139.666.208 1.04.208zm11.94-.384h-.192c-.256.533-.613.928-1.072 1.184a2.824 2.824 0 01-1.424.384 4.058 4.058 0 01-1.456-.256 3.538 3.538 0 01-1.184-.784 3.872 3.872 0 01-.784-1.28c-.192-.501-.288-1.083-.288-1.744v-.256c0-.65.096-1.227.288-1.728.192-.501.454-.923.784-1.264a3.427 3.427 0 011.184-.8 3.761 3.761 0 011.424-.272c.544 0 1.035.123 1.472.368.448.235.8.603 1.056 1.104h.192v-1.248h1.248v6.304c0 .32.144.48.432.48h.4V99h-.848c-.362 0-.661-.117-.896-.352-.224-.235-.336-.533-.336-.896v-.096zm-2.56.384c.374 0 .715-.07 1.024-.208.32-.139.592-.336.816-.592.224-.256.4-.56.528-.912.128-.363.192-.763.192-1.2v-.192c0-.427-.064-.816-.192-1.168a2.663 2.663 0 00-.544-.928 2.267 2.267 0 00-.816-.592 2.286 2.286 0 00-1.008-.224c-.373 0-.714.07-1.024.208a2.474 2.474 0 00-.816.592c-.224.245-.4.55-.528.912a3.396 3.396 0 00-.192 1.168v.256c0 .907.235 1.616.704 2.128.48.501 1.099.752 1.856.752zm14.021-1.856a3.936 3.936 0 01-.448 1.216 3.463 3.463 0 01-.784.976 3.57 3.57 0 01-1.12.624c-.426.15-.901.224-1.424.224-.554 0-1.082-.09-1.584-.272a3.92 3.92 0 01-1.296-.784 3.956 3.956 0 01-.896-1.28c-.213-.501-.32-1.077-.32-1.728v-.192c0-.64.107-1.216.32-1.728.224-.512.523-.944.896-1.296a4.001 4.001 0 011.296-.816 4.396 4.396 0 011.584-.288c.502 0 .966.075 1.392.224.427.15.8.363 1.12.64.331.267.598.587.8.96.214.373.358.779.432 1.216l-1.248.288a2.39 2.39 0 00-.24-.8 1.982 1.982 0 00-.496-.688 2.158 2.158 0 00-.752-.48 2.83 2.83 0 00-1.04-.176c-.384 0-.746.075-1.088.224-.33.139-.624.341-.88.608a2.815 2.815 0 00-.608.928 3.303 3.303 0 00-.208 1.184v.192c0 .448.07.853.208 1.216a2.674 2.674 0 001.504 1.472c.342.128.71.192 1.104.192.395 0 .736-.059 1.024-.176.299-.128.55-.288.752-.48.214-.203.379-.432.496-.688.128-.256.214-.523.256-.8l1.248.288zm4.421-1.824h.272l3.024-3.296h1.536v.096l-3.296 3.632v.288l3.68 3.824V99h-1.536l-3.376-3.488h-.304V99h-1.248V87.8h1.248v6.56zM199.312 169.064h2.448v-2.016c0-.363.112-.661.336-.896.235-.235.533-.352.896-.352h3.136v1.152h-2.688c-.288 0-.432.16-.432.48v1.632h3.312v1.152h-3.312V177h-1.248v-6.784h-2.448v-1.152zm15.637 6.592h-.192c-.256.533-.613.928-1.072 1.184a2.827 2.827 0 01-1.424.384 4.048 4.048 0 01-1.456-.256 3.528 3.528 0 01-1.184-.784 3.859 3.859 0 01-.784-1.28c-.192-.501-.288-1.083-.288-1.744v-.256c0-.651.096-1.227.288-1.728.192-.501.453-.923.784-1.264a3.414 3.414 0 011.184-.8 3.767 3.767 0 011.424-.272c.544 0 1.035.123 1.472.368.448.235.8.603 1.056 1.104h.192v-1.248h1.248v6.304c0 .32.144.48.432.48h.4V177h-.848c-.363 0-.661-.117-.896-.352-.224-.235-.336-.533-.336-.896v-.096zm-2.56.384a2.47 2.47 0 001.024-.208 2.27 2.27 0 00.816-.592c.224-.256.4-.56.528-.912.128-.363.192-.763.192-1.2v-.192c0-.427-.064-.816-.192-1.168a2.66 2.66 0 00-.544-.928 2.27 2.27 0 00-.816-.592 2.29 2.29 0 00-1.008-.224 2.47 2.47 0 00-1.024.208 2.478 2.478 0 00-.816.592c-.224.245-.4.549-.528.912a3.395 3.395 0 00-.192 1.168v.256c0 .907.235 1.616.704 2.128.48.501 1.099.752 1.856.752zm6.597-.192h2.88v-8.896h-2.784V165.8h4.032v10.048h2.88V177h-7.008v-1.152zm9.797 0h2.88v-8.896h-2.784V165.8h4.032v10.048h2.88V177h-7.008v-1.152zM239.539 177h-1.247v-11.2h1.247v4.512h.193c.277-.48.661-.843 1.152-1.088a3.405 3.405 0 011.6-.384c.49 0 .954.091 1.392.272.437.181.821.443 1.152.784.341.341.608.763.8 1.264.202.501.304 1.072.304 1.712v.32c0 .651-.096 1.227-.288 1.728a3.564 3.564 0 01-.8 1.264c-.331.341-.72.603-1.168.784a3.96 3.96 0 01-1.424.256c-.256 0-.518-.032-.784-.096a3.24 3.24 0 01-.768-.256 3.897 3.897 0 01-.656-.448 2.485 2.485 0 01-.512-.64h-.193V177zm2.657-.96c.384 0 .736-.064 1.056-.192.32-.139.597-.331.832-.576.245-.245.432-.544.56-.896.138-.352.208-.747.208-1.184v-.32c0-.427-.07-.811-.208-1.152a2.415 2.415 0 00-.56-.896 2.4 2.4 0 00-.848-.592 2.583 2.583 0 00-1.04-.208c-.374 0-.72.075-1.04.224-.32.139-.603.336-.848.592a2.854 2.854 0 00-.56.928 3.153 3.153 0 00-.209 1.168v.192c0 .437.07.837.209 1.2.138.352.325.656.56.912.245.256.528.453.848.592.32.139.666.208 1.04.208zm11.94-.384h-.192c-.256.533-.613.928-1.072 1.184a2.824 2.824 0 01-1.424.384 4.052 4.052 0 01-1.456-.256 3.538 3.538 0 01-1.184-.784 3.875 3.875 0 01-.784-1.28c-.192-.501-.288-1.083-.288-1.744v-.256c0-.651.096-1.227.288-1.728.192-.501.454-.923.784-1.264a3.423 3.423 0 011.184-.8 3.767 3.767 0 011.424-.272c.544 0 1.035.123 1.472.368.448.235.8.603 1.056 1.104h.192v-1.248h1.248v6.304c0 .32.144.48.432.48h.4V177h-.848c-.362 0-.661-.117-.896-.352-.224-.235-.336-.533-.336-.896v-.096zm-2.56.384c.374 0 .715-.069 1.024-.208a2.27 2.27 0 00.816-.592c.224-.256.4-.56.528-.912.128-.363.192-.763.192-1.2v-.192c0-.427-.064-.816-.192-1.168a2.66 2.66 0 00-.544-.928 2.27 2.27 0 00-.816-.592 2.29 2.29 0 00-1.008-.224c-.373 0-.714.069-1.024.208a2.478 2.478 0 00-.816.592c-.224.245-.4.549-.528.912a3.395 3.395 0 00-.192 1.168v.256c0 .907.235 1.616.704 2.128.48.501 1.099.752 1.856.752zm14.021-1.856a3.936 3.936 0 01-.448 1.216 3.463 3.463 0 01-.784.976c-.32.267-.693.475-1.12.624a4.293 4.293 0 01-1.424.224 4.634 4.634 0 01-1.584-.272 3.92 3.92 0 01-1.296-.784 3.96 3.96 0 01-.896-1.28c-.213-.501-.32-1.077-.32-1.728v-.192c0-.64.107-1.216.32-1.728.224-.512.523-.944.896-1.296a4.001 4.001 0 011.296-.816 4.396 4.396 0 011.584-.288c.502 0 .966.075 1.392.224.427.149.8.363 1.12.64.331.267.598.587.8.96.214.373.358.779.432 1.216l-1.248.288a2.391 2.391 0 00-.24-.8 1.98 1.98 0 00-.496-.688 2.15 2.15 0 00-.752-.48 2.836 2.836 0 00-1.04-.176c-.384 0-.746.075-1.088.224-.33.139-.624.341-.88.608a2.812 2.812 0 00-.608.928 3.303 3.303 0 00-.208 1.184v.192c0 .448.07.853.208 1.216a2.671 2.671 0 001.504 1.472c.342.128.71.192 1.104.192.395 0 .736-.059 1.024-.176.299-.128.55-.288.752-.48.214-.203.379-.432.496-.688a2.68 2.68 0 00.256-.8l1.248.288zm4.421-1.824h.272l3.024-3.296h1.536v.096l-3.296 3.632v.288l3.68 3.824V177h-1.536l-3.376-3.488h-.304V177h-1.248v-11.2h1.248v6.56z" fill="#6D6B85"/><path d="M26.968 33.096h3.672v-3.024c0-.544.168-.992.504-1.344.352-.352.8-.528 1.344-.528h4.704v1.728H33.16c-.432 0-.648.24-.648.72v2.448h4.968v1.728h-4.968V45H30.64V34.824h-3.672v-1.728zm26.047 6.096c0 .992-.168 1.872-.504 2.64a5.808 5.808 0 01-1.296 1.92 5.598 5.598 0 01-1.92 1.176 6.33 6.33 0 01-2.256.408c-.8 0-1.56-.136-2.28-.408a5.647 5.647 0 01-1.896-1.176 6.12 6.12 0 01-1.32-1.92c-.32-.768-.48-1.648-.48-2.64v-.288c0-.976.16-1.84.48-2.592a6.05 6.05 0 011.32-1.944c.56-.528 1.2-.928 1.92-1.2a6.33 6.33 0 012.256-.408 6.33 6.33 0 012.256.408c.72.272 1.352.672 1.896 1.2.56.528 1 1.176 1.32 1.944.336.752.504 1.616.504 2.592v.288zM47.04 43.56c.576 0 1.104-.096 1.584-.288a3.823 3.823 0 001.296-.888c.368-.384.656-.84.864-1.368a5.073 5.073 0 00.312-1.824v-.288c0-.64-.104-1.224-.312-1.752a4.1 4.1 0 00-.864-1.392c-.368-.384-.8-.68-1.296-.888a3.804 3.804 0 00-1.584-.336c-.56 0-1.088.112-1.584.336a3.823 3.823 0 00-1.296.888 4.1 4.1 0 00-.864 1.392 4.741 4.741 0 00-.312 1.752v.288c0 .672.104 1.28.312 1.824.208.528.496.984.864 1.368.368.384.792.68 1.272.888a4.416 4.416 0 001.608.288zM58.351 45h-1.872V33.096h1.872v2.016h.288c.736-1.568 2.016-2.352 3.84-2.352 1.376 0 2.472.432 3.288 1.296.816.848 1.224 2.128 1.224 3.84V45h-1.872v-6.72c0-1.248-.28-2.184-.84-2.808-.56-.624-1.32-.936-2.28-.936-1.136 0-2.032.392-2.688 1.176-.64.768-.96 1.8-.96 3.096V45zm12.415-11.904h3.744V28.2h1.872v4.896h4.608v1.728h-4.608v7.728c0 .48.216.72.648.72h3.384V45h-4.056c-.544 0-.992-.176-1.344-.528-.336-.352-.504-.8-.504-1.344v-8.304h-3.744v-1.728zm16.76 4.8h7.2v1.728h-7.2v-1.728zm22.255 5.28h-.288c-.192.368-.44.688-.744.96a3.99 3.99 0 01-.96.672 4.13 4.13 0 01-1.08.384 4.55 4.55 0 01-1.104.144c-.8 0-1.544-.136-2.232-.408a5.498 5.498 0 01-1.824-1.176c-.512-.512-.92-1.144-1.224-1.896-.288-.768-.432-1.64-.432-2.616v-.384c0-.96.152-1.816.456-2.568.304-.768.712-1.408 1.224-1.92a5.08 5.08 0 011.8-1.2 5.886 5.886 0 012.184-.408c.816 0 1.576.184 2.28.552.72.352 1.272.904 1.656 1.656h.288V28.2h1.872V45h-1.872v-1.824zm-3.984.384c.56 0 1.08-.104 1.56-.312.48-.208.896-.504 1.248-.888.368-.384.656-.84.864-1.368a5.002 5.002 0 00.312-1.8v-.288c0-.64-.104-1.224-.312-1.752a4.1 4.1 0 00-.864-1.392 3.58 3.58 0 00-1.272-.888 3.588 3.588 0 00-1.536-.336c-.56 0-1.088.104-1.584.312-.48.208-.904.504-1.272.888-.352.384-.632.84-.84 1.368a5.094 5.094 0 00-.288 1.752v.384c0 .672.096 1.272.288 1.8.208.528.488.984.84 1.368.368.368.792.656 1.272.864.48.192 1.008.288 1.584.288zm13.159-14.016c0-.464.16-.856.48-1.176a1.639 1.639 0 011.2-.504c.464 0 .856.168 1.176.504.336.32.504.712.504 1.176 0 .464-.168.864-.504 1.2a1.6 1.6 0 01-1.176.48 1.68 1.68 0 01-1.2-.48 1.68 1.68 0 01-.48-1.2zm-3.408 13.728h4.176v-8.448h-3.744v-1.728h5.616v10.176h3.888V45h-9.936v-1.728zm16.879-7.104c0 .576.24 1.016.72 1.32.496.304 1.392.504 2.688.6 1.392.112 2.448.448 3.168 1.008.736.544 1.104 1.344 1.104 2.4v.144a3.345 3.345 0 01-1.32 2.712c-.4.32-.896.56-1.488.72a6.465 6.465 0 01-1.896.264c-.928 0-1.728-.12-2.4-.36-.656-.256-1.208-.584-1.656-.984a4.34 4.34 0 01-.984-1.392 4.779 4.779 0 01-.384-1.584l1.776-.432c.08.912.432 1.648 1.056 2.208.624.544 1.456.816 2.496.816.88 0 1.584-.168 2.112-.504.544-.352.816-.84.816-1.464 0-.672-.264-1.152-.792-1.44-.528-.288-1.384-.472-2.568-.552-1.376-.096-2.432-.416-3.168-.96-.736-.544-1.104-1.336-1.104-2.376v-.144c0-.56.12-1.048.36-1.464.24-.432.56-.792.96-1.08.416-.288.88-.504 1.392-.648a5.912 5.912 0 011.608-.216c.784 0 1.472.112 2.064.336.592.208 1.088.488 1.488.84.4.336.704.728.912 1.176.224.448.368.896.432 1.344l-1.776.432c-.08-.768-.392-1.368-.936-1.8-.528-.432-1.224-.648-2.088-.648-.336 0-.664.04-.984.12a2.624 2.624 0 00-.816.312c-.24.144-.432.328-.576.552a1.274 1.274 0 00-.216.744zM146.09 49.8h-1.871V33.096h1.871v1.872h.289a4.048 4.048 0 011.728-1.632 5.11 5.11 0 012.4-.576c.736 0 1.432.136 2.088.408a5.103 5.103 0 011.728 1.176c.512.512.912 1.144 1.2 1.896.304.752.456 1.608.456 2.568v.48c0 .976-.144 1.84-.432 2.592-.288.752-.688 1.384-1.2 1.896a5.047 5.047 0 01-1.752 1.176 5.949 5.949 0 01-2.136.384c-.384 0-.776-.048-1.176-.144-.4-.08-.784-.208-1.152-.384a5.937 5.937 0 01-.984-.672 3.759 3.759 0 01-.768-.96h-.289V49.8zm3.985-6.24c.576 0 1.104-.096 1.584-.288.48-.208.896-.496 1.248-.864a3.62 3.62 0 00.84-1.344c.208-.528.312-1.12.312-1.776v-.48c0-.64-.104-1.216-.312-1.728a3.62 3.62 0 00-.84-1.344 3.58 3.58 0 00-1.272-.888 3.88 3.88 0 00-1.56-.312c-.56 0-1.08.112-1.56.336-.48.208-.904.504-1.272.888a4.313 4.313 0 00-.84 1.392 4.742 4.742 0 00-.313 1.752v.288c0 .656.105 1.256.313 1.8.208.528.488.984.84 1.368.368.384.792.68 1.272.888.48.208 1 .312 1.56.312zm9.271-.288h4.32V29.928h-4.176V28.2h6.048v15.072h4.32V45h-10.512v-1.728zm23.335-.288h-.288c-.384.8-.92 1.392-1.608 1.776a4.24 4.24 0 01-2.136.576 6.085 6.085 0 01-2.184-.384 5.297 5.297 0 01-1.776-1.176 5.791 5.791 0 01-1.176-1.92c-.288-.752-.432-1.624-.432-2.616v-.384c0-.976.144-1.84.432-2.592.288-.752.68-1.384 1.176-1.896a5.132 5.132 0 011.776-1.2 5.639 5.639 0 012.136-.408c.816 0 1.552.184 2.208.552.672.352 1.2.904 1.584 1.656h.288v-1.872h1.872v9.456c0 .48.216.72.648.72h.6V45h-1.272c-.544 0-.992-.176-1.344-.528-.336-.352-.504-.8-.504-1.344v-.144zm-3.84.576c.56 0 1.072-.104 1.536-.312a3.4 3.4 0 001.224-.888c.336-.384.6-.84.792-1.368a5.377 5.377 0 00.288-1.8v-.288c0-.64-.096-1.224-.288-1.752a4.002 4.002 0 00-.816-1.392 3.4 3.4 0 00-1.224-.888 3.432 3.432 0 00-1.512-.336c-.56 0-1.072.104-1.536.312a3.7 3.7 0 00-1.224.888c-.336.368-.6.824-.792 1.368a5.094 5.094 0 00-.288 1.752v.384c0 1.36.352 2.424 1.056 3.192.72.752 1.648 1.128 2.784 1.128zm18.535-.72h-.288c-.384.768-.888 1.376-1.512 1.824-.624.448-1.416.672-2.376.672a4.866 4.866 0 01-1.824-.336 3.714 3.714 0 01-1.416-.96c-.384-.432-.688-.968-.912-1.608-.208-.64-.312-1.384-.312-2.232v-7.104h1.872v6.864c0 1.248.256 2.16.768 2.736.512.576 1.296.864 2.352.864 1.136 0 2.024-.384 2.664-1.152.656-.784.984-1.824.984-3.12v-6.192h1.872v14.832c0 .544-.176.992-.528 1.344-.336.352-.776.528-1.32.528h-6.792v-1.728h6.12c.432 0 .648-.24.648-.72V42.84zm9.632.816c0-.464.16-.856.48-1.176a1.639 1.639 0 011.2-.504c.464 0 .856.168 1.176.504.336.32.504.712.504 1.176 0 .464-.168.864-.504 1.2a1.6 1.6 0 01-1.176.48 1.68 1.68 0 01-1.2-.48 1.68 1.68 0 01-.48-1.2zm0-9.216c0-.464.16-.856.48-1.176a1.639 1.639 0 011.2-.504c.464 0 .856.168 1.176.504.336.32.504.712.504 1.176 0 .464-.168.864-.504 1.2a1.6 1.6 0 01-1.176.48 1.68 1.68 0 01-1.2-.48 1.68 1.68 0 01-.48-1.2zm28.286 1.728c0 .576.24 1.016.72 1.32.496.304 1.392.504 2.688.6 1.392.112 2.448.448 3.168 1.008.736.544 1.104 1.344 1.104 2.4v.144a3.345 3.345 0 01-1.32 2.712c-.4.32-.896.56-1.488.72a6.465 6.465 0 01-1.896.264c-.928 0-1.728-.12-2.4-.36-.656-.256-1.208-.584-1.656-.984a4.34 4.34 0 01-.984-1.392 4.779 4.779 0 01-.384-1.584l1.776-.432c.08.912.432 1.648 1.056 2.208.624.544 1.456.816 2.496.816.88 0 1.584-.168 2.112-.504.544-.352.816-.84.816-1.464 0-.672-.264-1.152-.792-1.44-.528-.288-1.384-.472-2.568-.552-1.376-.096-2.432-.416-3.168-.96-.736-.544-1.104-1.336-1.104-2.376v-.144c0-.56.12-1.048.36-1.464.24-.432.56-.792.96-1.08.416-.288.88-.504 1.392-.648a5.912 5.912 0 011.608-.216c.784 0 1.472.112 2.064.336.592.208 1.088.488 1.488.84.4.336.704.728.912 1.176.224.448.368.896.432 1.344l-1.776.432c-.08-.768-.392-1.368-.936-1.8-.528-.432-1.224-.648-2.088-.648-.336 0-.664.04-.984.12a2.624 2.624 0 00-.816.312c-.24.144-.432.328-.576.552a1.274 1.274 0 00-.216.744zM257.814 45h-3.456l-1.44-11.04h-.288L251.19 45h-3.456l-1.872-11.904h1.92l1.584 11.04h.288l1.392-11.04h3.456l1.392 11.04h.288l1.584-11.04h1.92L257.814 45zm13.039-2.016h-.288c-.384.8-.92 1.392-1.608 1.776a4.24 4.24 0 01-2.136.576 6.085 6.085 0 01-2.184-.384 5.297 5.297 0 01-1.776-1.176 5.791 5.791 0 01-1.176-1.92c-.288-.752-.432-1.624-.432-2.616v-.384c0-.976.144-1.84.432-2.592.288-.752.68-1.384 1.176-1.896a5.132 5.132 0 011.776-1.2 5.639 5.639 0 012.136-.408c.816 0 1.552.184 2.208.552.672.352 1.2.904 1.584 1.656h.288v-1.872h1.872v9.456c0 .48.216.72.648.72h.6V45h-1.272c-.544 0-.992-.176-1.344-.528-.336-.352-.504-.8-.504-1.344v-.144zm-3.84.576c.56 0 1.072-.104 1.536-.312a3.4 3.4 0 001.224-.888c.336-.384.6-.84.792-1.368a5.377 5.377 0 00.288-1.8v-.288c0-.64-.096-1.224-.288-1.752a4.002 4.002 0 00-.816-1.392 3.4 3.4 0 00-1.224-.888 3.432 3.432 0 00-1.512-.336c-.56 0-1.072.104-1.536.312a3.7 3.7 0 00-1.224.888c-.336.368-.6.824-.792 1.368a5.094 5.094 0 00-.288 1.752v.384c0 1.36.352 2.424 1.056 3.192.72.752 1.648 1.128 2.784 1.128zm11.335 6.24h-1.872V33.096h1.872v1.872h.288a4.048 4.048 0 011.728-1.632 5.11 5.11 0 012.4-.576c.736 0 1.432.136 2.088.408a5.103 5.103 0 011.728 1.176c.512.512.912 1.144 1.2 1.896.304.752.456 1.608.456 2.568v.48c0 .976-.144 1.84-.432 2.592-.288.752-.688 1.384-1.2 1.896a5.047 5.047 0 01-1.752 1.176 5.949 5.949 0 01-2.136.384c-.384 0-.776-.048-1.176-.144-.4-.08-.784-.208-1.152-.384a5.937 5.937 0 01-.984-.672 3.759 3.759 0 01-.768-.96h-.288V49.8zm3.984-6.24c.576 0 1.104-.096 1.584-.288.48-.208.896-.496 1.248-.864a3.62 3.62 0 00.84-1.344c.208-.528.312-1.12.312-1.776v-.48c0-.64-.104-1.216-.312-1.728a3.62 3.62 0 00-.84-1.344 3.58 3.58 0 00-1.272-.888 3.88 3.88 0 00-1.56-.312c-.56 0-1.08.112-1.56.336-.48.208-.904.504-1.272.888a4.313 4.313 0 00-.84 1.392 4.741 4.741 0 00-.312 1.752v.288c0 .656.104 1.256.312 1.8.208.528.488.984.84 1.368.368.384.792.68 1.272.888.48.208 1 .312 1.56.312zm12.848.096c0-.464.16-.856.48-1.176a1.639 1.639 0 011.2-.504c.464 0 .856.168 1.176.504.336.32.504.712.504 1.176v2.352c0 .544-.176.992-.528 1.344-.336.352-.776.528-1.32.528h-1.224v-1.296h1.128c.432 0 .648-.24.648-.72v-.6a1.152 1.152 0 01-.408.072c-.448 0-.84-.16-1.176-.48a1.68 1.68 0 01-.48-1.2zm0-9.216c0-.464.16-.856.48-1.176a1.639 1.639 0 011.2-.504c.464 0 .856.168 1.176.504.336.32.504.712.504 1.176 0 .464-.168.864-.504 1.2a1.6 1.6 0 01-1.176.48 1.68 1.68 0 01-1.2-.48 1.68 1.68 0 01-.48-1.2zM102.881 177h-2.304l-.96-7.36h-.192l-.96 7.36h-2.304l-1.248-7.936h1.28l1.056 7.36h.192l.928-7.36h2.304l.928 7.36h.192l1.056-7.36h1.28L102.881 177zm3.845-3.584c.032.789.277 1.424.736 1.904.459.48 1.099.72 1.92.72.373 0 .699-.043.976-.128s.512-.203.704-.352c.203-.149.363-.32.48-.512.128-.203.229-.416.304-.64l1.184.32a3.527 3.527 0 01-1.248 1.808c-.597.459-1.408.688-2.432.688a4.185 4.185 0 01-1.568-.288 3.621 3.621 0 01-1.216-.848 3.916 3.916 0 01-.8-1.296 4.617 4.617 0 01-.288-1.664v-.384c0-.555.096-1.072.288-1.552.203-.48.48-.891.832-1.232a3.713 3.713 0 011.232-.816c.48-.203.997-.304 1.552-.304.651 0 1.211.123 1.68.368.48.235.869.528 1.168.88.309.352.533.736.672 1.152.149.416.224.8.224 1.152v1.024h-6.4zm2.656-3.392a2.78 2.78 0 00-.992.176 2.497 2.497 0 00-.8.464 2.67 2.67 0 00-.56.72c-.139.267-.229.56-.272.88h5.12a2.225 2.225 0 00-.256-.928 2.13 2.13 0 00-.56-.704 2.468 2.468 0 00-.784-.448 2.553 2.553 0 00-.896-.16zm7.189 6.976h-1.248v-11.2h1.248v4.512h.192c.277-.48.661-.843 1.152-1.088a3.405 3.405 0 011.6-.384c.49 0 .954.091 1.392.272.437.181.821.443 1.152.784.341.341.608.763.8 1.264.202.501.304 1.072.304 1.712v.32c0 .651-.096 1.227-.288 1.728a3.564 3.564 0 01-.8 1.264c-.331.341-.72.603-1.168.784a3.96 3.96 0 01-1.424.256c-.256 0-.518-.032-.784-.096a3.24 3.24 0 01-.768-.256 3.897 3.897 0 01-.656-.448 2.485 2.485 0 01-.512-.64h-.192V177zm2.656-.96c.384 0 .736-.064 1.056-.192.32-.139.597-.331.832-.576.245-.245.432-.544.56-.896.138-.352.208-.747.208-1.184v-.32c0-.427-.07-.811-.208-1.152a2.415 2.415 0 00-.56-.896 2.4 2.4 0 00-.848-.592 2.583 2.583 0 00-1.04-.208c-.374 0-.72.075-1.04.224-.32.139-.603.336-.848.592a2.854 2.854 0 00-.56.928 3.153 3.153 0 00-.208 1.168v.192c0 .437.069.837.208 1.2.138.352.325.656.56.912.245.256.528.453.848.592.32.139.666.208 1.04.208zm15.898-6.976h2.448v-2.016c0-.363.112-.661.336-.896.234-.235.533-.352.896-.352h3.136v1.152h-2.688c-.288 0-.432.16-.432.48v1.632h3.312v1.152h-3.312V177h-1.248v-6.784h-2.448v-1.152zm17.364 4.064c0 .661-.112 1.248-.336 1.76a3.865 3.865 0 01-.864 1.28 3.722 3.722 0 01-1.28.784c-.48.181-.981.272-1.504.272-.533 0-1.04-.091-1.52-.272a3.768 3.768 0 01-1.264-.784 4.095 4.095 0 01-.88-1.28c-.213-.512-.32-1.099-.32-1.76v-.192c0-.651.107-1.227.32-1.728.224-.512.518-.944.88-1.296.374-.352.8-.619 1.28-.8a4.23 4.23 0 011.504-.272c.523 0 1.024.091 1.504.272.48.181.902.448 1.264.8.374.352.667.784.88 1.296.224.501.336 1.077.336 1.728v.192zm-3.984 2.912c.384 0 .736-.064 1.056-.192.331-.139.619-.336.864-.592.246-.256.438-.56.576-.912.139-.363.208-.768.208-1.216v-.192c0-.427-.069-.816-.208-1.168a2.71 2.71 0 00-.576-.928 2.547 2.547 0 00-.864-.592 2.537 2.537 0 00-1.056-.224c-.373 0-.725.075-1.056.224-.33.139-.618.336-.864.592a2.74 2.74 0 00-.576.928 3.173 3.173 0 00-.208 1.168v.192c0 .448.07.853.208 1.216.139.352.331.656.576.912.246.256.528.453.848.592.331.128.688.192 1.072.192zm7.541.96h-1.248v-7.936h1.248v1.344h.192c.491-1.045 1.344-1.568 2.56-1.568.918 0 1.648.288 2.192.864.544.565.816 1.419.816 2.56V177h-1.248v-4.48c0-.832-.186-1.456-.56-1.872-.373-.416-.88-.624-1.52-.624-.757 0-1.354.261-1.792.784-.426.512-.64 1.2-.64 2.064V177zm8.277-7.936h2.496V165.8h1.248v3.264h3.072v1.152h-3.072v5.152c0 .32.144.48.432.48h2.256V177h-2.704c-.363 0-.661-.117-.896-.352-.224-.235-.336-.533-.336-.896v-5.536h-2.496v-1.152zm-101.35 30.72h-.191a2.243 2.243 0 01-.496.64 2.66 2.66 0 01-.64.448 2.754 2.754 0 01-.72.256 3.034 3.034 0 01-.736.096c-.534 0-1.03-.091-1.488-.272a3.665 3.665 0 01-1.216-.784 3.748 3.748 0 01-.816-1.264c-.193-.512-.288-1.093-.288-1.744v-.256c0-.64.1-1.211.303-1.712.203-.512.475-.939.816-1.28a3.382 3.382 0 011.2-.8 3.93 3.93 0 011.456-.272c.545 0 1.051.123 1.52.368.48.235.849.603 1.105 1.104h.192V189.8h1.248V201h-1.248v-1.216zm-2.655.256c.373 0 .72-.069 1.04-.208.32-.139.597-.336.832-.592.245-.256.437-.56.576-.912.138-.363.208-.763.208-1.2v-.192c0-.427-.07-.816-.208-1.168a2.731 2.731 0 00-.576-.928 2.391 2.391 0 00-.848-.592 2.397 2.397 0 00-1.024-.224c-.374 0-.726.069-1.056.208-.32.139-.603.336-.849.592-.234.256-.42.56-.56.912a3.395 3.395 0 00-.192 1.168v.256c0 .448.064.848.192 1.2.14.352.326.656.56.912.246.245.529.437.849.576.32.128.672.192 1.056.192zm13.796-2.912c0 .661-.112 1.248-.336 1.76a3.877 3.877 0 01-.864 1.28c-.362.341-.789.603-1.28.784-.48.181-.981.272-1.504.272-.533 0-1.04-.091-1.52-.272a3.764 3.764 0 01-1.264-.784 4.083 4.083 0 01-.88-1.28c-.213-.512-.32-1.099-.32-1.76v-.192c0-.651.107-1.227.32-1.728.224-.512.518-.944.88-1.296.374-.352.8-.619 1.28-.8.48-.181.982-.272 1.504-.272.523 0 1.024.091 1.504.272.48.181.902.448 1.264.8.374.352.667.784.88 1.296.224.501.336 1.077.336 1.728v.192zm-3.984 2.912c.384 0 .736-.064 1.056-.192.331-.139.619-.336.864-.592.246-.256.438-.56.576-.912.139-.363.208-.768.208-1.216v-.192c0-.427-.069-.816-.208-1.168a2.731 2.731 0 00-.576-.928 2.555 2.555 0 00-.864-.592 2.541 2.541 0 00-1.056-.224 2.54 2.54 0 00-1.056.224c-.33.139-.618.336-.864.592a2.728 2.728 0 00-.576.928 3.16 3.16 0 00-.208 1.168v.192c0 .448.07.853.208 1.216.139.352.331.656.576.912.246.256.528.453.848.592.331.128.688.192 1.072.192zm7.205-2.624c.032.789.278 1.424.736 1.904.459.48 1.099.72 1.92.72.374 0 .699-.043.976-.128.278-.085.512-.203.704-.352.203-.149.363-.32.48-.512.128-.203.23-.416.304-.64l1.184.32a3.527 3.527 0 01-1.248 1.808c-.597.459-1.408.688-2.432.688a4.184 4.184 0 01-1.568-.288 3.62 3.62 0 01-1.216-.848 3.91 3.91 0 01-.8-1.296 4.617 4.617 0 01-.288-1.664v-.384c0-.555.096-1.072.288-1.552.203-.48.48-.891.832-1.232a3.71 3.71 0 011.232-.816c.48-.203.998-.304 1.552-.304.65 0 1.21.123 1.68.368.48.235.87.528 1.168.88.31.352.534.736.672 1.152.15.416.224.8.224 1.152v1.024h-6.4zm2.656-3.392a2.78 2.78 0 00-.992.176 2.496 2.496 0 00-.8.464c-.224.203-.41.443-.56.72a2.65 2.65 0 00-.272.88h5.12a2.227 2.227 0 00-.256-.928 2.132 2.132 0 00-.56-.704 2.473 2.473 0 00-.784-.448 2.552 2.552 0 00-.896-.16zm7.877 1.088c0 .384.16.677.48.88.33.203.928.336 1.792.4.928.075 1.632.299 2.112.672.49.363.736.896.736 1.6v.096a2.229 2.229 0 01-.88 1.808 2.7 2.7 0 01-.992.48 4.321 4.321 0 01-1.264.176c-.618 0-1.152-.08-1.6-.24a3.608 3.608 0 01-1.104-.656 2.895 2.895 0 01-.656-.928 3.188 3.188 0 01-.256-1.056l1.184-.288c.053.608.288 1.099.704 1.472.416.363.97.544 1.664.544.587 0 1.056-.112 1.408-.336.363-.235.544-.56.544-.976 0-.448-.176-.768-.528-.96-.352-.192-.922-.315-1.712-.368-.917-.064-1.621-.277-2.112-.64-.49-.363-.736-.891-.736-1.584v-.096c0-.373.08-.699.24-.976.16-.288.374-.528.64-.72.278-.192.587-.336.928-.432a3.942 3.942 0 011.072-.144c.523 0 .981.075 1.376.224.395.139.725.325.992.56.267.224.47.485.608.784.15.299.246.597.288.896l-1.184.288c-.053-.512-.261-.912-.624-1.2-.352-.288-.816-.432-1.392-.432-.224 0-.443.027-.656.08a1.758 1.758 0 00-.544.208c-.16.096-.288.219-.384.368a.85.85 0 00-.144.496zM97.265 201h-1.248v-7.936h1.248v1.344h.192c.49-1.045 1.344-1.568 2.56-1.568.917 0 1.648.288 2.192.864.544.565.816 1.419.816 2.56V201h-1.248v-4.48c0-.832-.187-1.456-.56-1.872-.373-.416-.88-.624-1.52-.624-.757 0-1.355.261-1.792.784-.427.512-.64 1.2-.64 2.064V201zm10.933-10.304c0-.309.107-.571.32-.784.224-.224.491-.336.8-.336.309 0 .571.112.784.336.224.213.336.475.336.784v1.568c0 .363-.117.661-.352.896-.224.235-.517.352-.88.352h-.816v-.864h.752c.288 0 .432-.16.432-.48v-.4a.767.767 0 01-.272.048c-.299 0-.56-.107-.784-.32a1.122 1.122 0 01-.32-.8zm7.141 2.368h2.496V189.8h1.248v3.264h3.072v1.152h-3.072v5.152c0 .32.144.48.432.48h2.256V201h-2.704c-.363 0-.662-.117-.896-.352-.224-.235-.336-.533-.336-.896v-5.536h-2.496v-1.152zm19.866 6.784h2.88v-8.896h-2.784V189.8h4.032v10.048h2.88V201h-7.008v-1.152zm17.284-2.72c0 .661-.112 1.248-.336 1.76a3.865 3.865 0 01-.864 1.28 3.722 3.722 0 01-1.28.784c-.48.181-.981.272-1.504.272-.533 0-1.04-.091-1.52-.272a3.768 3.768 0 01-1.264-.784 4.095 4.095 0 01-.88-1.28c-.213-.512-.32-1.099-.32-1.76v-.192c0-.651.107-1.227.32-1.728.224-.512.518-.944.88-1.296.374-.352.8-.619 1.28-.8a4.23 4.23 0 011.504-.272c.523 0 1.024.091 1.504.272.48.181.902.448 1.264.8.374.352.667.784.88 1.296.224.501.336 1.077.336 1.728v.192zm-3.984 2.912c.384 0 .736-.064 1.056-.192.331-.139.619-.336.864-.592.246-.256.438-.56.576-.912.139-.363.208-.768.208-1.216v-.192c0-.427-.069-.816-.208-1.168a2.71 2.71 0 00-.576-.928 2.547 2.547 0 00-.864-.592 2.537 2.537 0 00-1.056-.224c-.373 0-.725.075-1.056.224-.33.139-.618.336-.864.592a2.74 2.74 0 00-.576.928 3.173 3.173 0 00-.208 1.168v.192c0 .448.07.853.208 1.216.139.352.331.656.576.912.246.256.528.453.848.592.331.128.688.192 1.072.192zm12.053-.384h-.192c-.256.533-.613.928-1.072 1.184a2.824 2.824 0 01-1.424.384 4.052 4.052 0 01-1.456-.256 3.538 3.538 0 01-1.184-.784 3.875 3.875 0 01-.784-1.28c-.192-.501-.288-1.083-.288-1.744v-.256c0-.651.096-1.227.288-1.728.192-.501.454-.923.784-1.264a3.423 3.423 0 011.184-.8 3.767 3.767 0 011.424-.272c.544 0 1.035.123 1.472.368.448.235.8.603 1.056 1.104h.192v-1.248h1.248v6.304c0 .32.144.48.432.48h.4V201h-.848c-.362 0-.661-.117-.896-.352-.224-.235-.336-.533-.336-.896v-.096zm-2.56.384c.374 0 .715-.069 1.024-.208a2.27 2.27 0 00.816-.592c.224-.256.4-.56.528-.912.128-.363.192-.763.192-1.2v-.192c0-.427-.064-.816-.192-1.168a2.66 2.66 0 00-.544-.928 2.27 2.27 0 00-.816-.592 2.29 2.29 0 00-1.008-.224c-.373 0-.714.069-1.024.208a2.478 2.478 0 00-.816.592c-.224.245-.4.549-.528.912a3.395 3.395 0 00-.192 1.168v.256c0 .907.235 1.616.704 2.128.48.501 1.099.752 1.856.752zm12.741-.256h-.192a2.237 2.237 0 01-.496.64 2.653 2.653 0 01-.64.448 2.754 2.754 0 01-.72.256 3.032 3.032 0 01-.736.096 4.02 4.02 0 01-1.488-.272 3.662 3.662 0 01-1.216-.784 3.757 3.757 0 01-.816-1.264c-.192-.512-.288-1.093-.288-1.744v-.256c0-.64.101-1.211.304-1.712.203-.512.475-.939.816-1.28a3.377 3.377 0 011.2-.8 3.932 3.932 0 011.456-.272c.544 0 1.051.123 1.52.368.48.235.848.603 1.104 1.104h.192V189.8h1.248V201h-1.248v-1.216zm-2.656.256c.373 0 .72-.069 1.04-.208a2.43 2.43 0 00.832-.592c.245-.256.437-.56.576-.912a3.33 3.33 0 00.208-1.2v-.192c0-.427-.069-.816-.208-1.168a2.74 2.74 0 00-.576-.928 2.391 2.391 0 00-.848-.592 2.396 2.396 0 00-1.024-.224 2.7 2.7 0 00-1.056.208c-.32.139-.603.336-.848.592-.235.256-.421.56-.56.912a3.395 3.395 0 00-.192 1.168v.256c0 .448.064.848.192 1.2.139.352.325.656.56.912.245.245.528.437.848.576.32.128.672.192 1.056.192z" fill="#2D2A50"/><path stroke="#6D6B85" stroke-width="4" d="M198 108h164M198 186h500"/><path stroke="#F52963" stroke-width="4" d="M362 108h336"/><circle cx="362" cy="108" r="7" fill="#fff" stroke="#F52963" stroke-width="4"/><circle cx="446" cy="35" r="7" fill="#fff" stroke="#F52963" stroke-width="4"/><path d="M466.552 33.672h6.688v1.152h-6.688v-1.152zm0 2.304h6.688v1.152h-6.688v-1.152zm19.354-2.912h2.448v-2.016c0-.363.112-.661.336-.896.234-.235.533-.352.896-.352h3.136v1.152h-2.688c-.288 0-.432.16-.432.48v1.632h3.312v1.152h-3.312V41h-1.248v-6.784h-2.448v-1.152zm17.365 4.064c0 .661-.112 1.248-.336 1.76a3.893 3.893 0 01-.864 1.28c-.363.341-.79.603-1.28.784-.48.181-.982.272-1.504.272-.534 0-1.04-.09-1.52-.272a3.758 3.758 0 01-1.264-.784 4.075 4.075 0 01-.88-1.28c-.214-.512-.32-1.099-.32-1.76v-.192c0-.65.106-1.227.32-1.728.224-.512.517-.944.88-1.296.373-.352.8-.619 1.28-.8a4.22 4.22 0 011.504-.272c.522 0 1.024.09 1.504.272.48.181.901.448 1.264.8.373.352.666.784.88 1.296.224.501.336 1.077.336 1.728v.192zm-3.984 2.912c.384 0 .736-.064 1.056-.192.33-.139.618-.336.864-.592.245-.256.437-.56.576-.912.138-.363.208-.768.208-1.216v-.192c0-.427-.07-.816-.208-1.168a2.743 2.743 0 00-.576-.928 2.562 2.562 0 00-.864-.592 2.539 2.539 0 00-1.056-.224c-.374 0-.726.075-1.056.224a2.542 2.542 0 00-.864.592 2.713 2.713 0 00-.576.928 3.154 3.154 0 00-.208 1.168v.192c0 .448.069.853.208 1.216.138.352.33.656.576.912.245.256.528.453.848.592.33.128.688.192 1.072.192zm7.541.96h-1.248v-7.936h1.248v1.344h.192c.49-1.045 1.344-1.568 2.56-1.568.917 0 1.648.288 2.192.864.544.565.816 1.419.816 2.56V41h-1.248v-4.48c0-.832-.187-1.456-.56-1.872-.374-.416-.88-.624-1.52-.624-.758 0-1.355.261-1.792.784-.427.512-.64 1.2-.64 2.064V41zm8.276-7.936h2.496V29.8h1.248v3.264h3.072v1.152h-3.072v5.152c0 .32.144.48.432.48h2.256V41h-2.704c-.362 0-.661-.117-.896-.352-.224-.235-.336-.533-.336-.896v-5.536h-2.496v-1.152zm26.01 6.72h-.192a2.237 2.237 0 01-.496.64c-.192.181-.405.33-.64.448a2.754 2.754 0 01-.72.256 3.032 3.032 0 01-.736.096c-.533 0-1.029-.09-1.488-.272a3.662 3.662 0 01-1.216-.784 3.757 3.757 0 01-.816-1.264c-.192-.512-.288-1.093-.288-1.744v-.256c0-.64.101-1.21.304-1.712.203-.512.475-.939.816-1.28a3.38 3.38 0 011.2-.8 3.926 3.926 0 011.456-.272c.544 0 1.051.123 1.52.368.48.235.848.603 1.104 1.104h.192V29.8h1.248V41h-1.248v-1.216zm-2.656.256c.373 0 .72-.07 1.04-.208.32-.139.597-.336.832-.592.245-.256.437-.56.576-.912.139-.363.208-.763.208-1.2v-.192c0-.427-.069-.816-.208-1.168a2.743 2.743 0 00-.576-.928 2.387 2.387 0 00-.848-.592 2.391 2.391 0 00-1.024-.224c-.373 0-.725.07-1.056.208-.32.139-.603.336-.848.592-.235.256-.421.56-.56.912a3.396 3.396 0 00-.192 1.168v.256c0 .448.064.848.192 1.2.139.352.325.656.56.912.245.245.528.437.848.576.32.128.672.192 1.056.192zm13.797-2.912c0 .661-.112 1.248-.336 1.76a3.862 3.862 0 01-.864 1.28 3.732 3.732 0 01-1.28.784 4.22 4.22 0 01-1.504.272c-.533 0-1.04-.09-1.52-.272a3.768 3.768 0 01-1.264-.784 4.075 4.075 0 01-.88-1.28c-.213-.512-.32-1.099-.32-1.76v-.192c0-.65.107-1.227.32-1.728.224-.512.517-.944.88-1.296.373-.352.8-.619 1.28-.8a4.22 4.22 0 011.504-.272c.523 0 1.024.09 1.504.272.48.181.901.448 1.264.8.373.352.667.784.88 1.296.224.501.336 1.077.336 1.728v.192zm-3.984 2.912c.384 0 .736-.064 1.056-.192.331-.139.619-.336.864-.592.245-.256.437-.56.576-.912.139-.363.208-.768.208-1.216v-.192c0-.427-.069-.816-.208-1.168a2.743 2.743 0 00-.576-.928 2.542 2.542 0 00-.864-.592 2.539 2.539 0 00-1.056-.224c-.373 0-.725.075-1.056.224a2.542 2.542 0 00-.864.592 2.743 2.743 0 00-.576.928 3.154 3.154 0 00-.208 1.168v.192c0 .448.069.853.208 1.216.139.352.331.656.576.912.245.256.528.453.848.592.331.128.688.192 1.072.192zm13.157.96h-2.304l-.96-7.36h-.192l-.96 7.36h-2.304l-1.248-7.936h1.28l1.056 7.36h.192l.928-7.36h2.304l.928 7.36h.192l1.056-7.36h1.28L561.428 41zm4.181 0h-1.248v-7.936h1.248v1.344h.192c.49-1.045 1.344-1.568 2.56-1.568.917 0 1.648.288 2.192.864.544.565.816 1.419.816 2.56V41h-1.248v-4.48c0-.832-.187-1.456-.56-1.872-.374-.416-.88-.624-1.52-.624-.758 0-1.355.261-1.792.784-.427.512-.64 1.2-.64 2.064V41zm8.549-1.152h2.88v-8.896h-2.784V29.8h4.032v10.048h2.88V41h-7.008v-1.152zm17.285-2.72c0 .661-.112 1.248-.336 1.76a3.893 3.893 0 01-.864 1.28c-.363.341-.79.603-1.28.784-.48.181-.982.272-1.504.272-.534 0-1.04-.09-1.52-.272a3.773 3.773 0 01-1.265-.784 4.089 4.089 0 01-.879-1.28c-.214-.512-.32-1.099-.32-1.76v-.192c0-.65.106-1.227.32-1.728.224-.512.517-.944.879-1.296a3.822 3.822 0 011.281-.8 4.22 4.22 0 011.504-.272c.522 0 1.024.09 1.504.272.48.181.901.448 1.264.8.373.352.666.784.88 1.296.224.501.336 1.077.336 1.728v.192zm-3.984 2.912c.384 0 .736-.064 1.056-.192.33-.139.618-.336.864-.592.245-.256.437-.56.576-.912.138-.363.208-.768.208-1.216v-.192c0-.427-.07-.816-.208-1.168a2.743 2.743 0 00-.576-.928 2.562 2.562 0 00-.864-.592 2.539 2.539 0 00-1.056-.224c-.374 0-.726.075-1.056.224a2.542 2.542 0 00-.864.592 2.713 2.713 0 00-.576.928 3.154 3.154 0 00-.208 1.168v.192c0 .448.069.853.208 1.216.138.352.33.656.576.912.245.256.528.453.848.592.33.128.688.192 1.072.192zm12.052-.384h-.192c-.256.533-.613.928-1.072 1.184a2.824 2.824 0 01-1.424.384 4.058 4.058 0 01-1.456-.256 3.538 3.538 0 01-1.184-.784 3.872 3.872 0 01-.784-1.28c-.192-.501-.288-1.083-.288-1.744v-.256c0-.65.096-1.227.288-1.728.192-.501.454-.923.784-1.264a3.427 3.427 0 011.184-.8 3.761 3.761 0 011.424-.272c.544 0 1.035.123 1.472.368.448.235.8.603 1.056 1.104h.192v-1.248h1.248v6.304c0 .32.144.48.432.48h.4V41h-.848c-.362 0-.661-.117-.896-.352-.224-.235-.336-.533-.336-.896v-.096zm-2.56.384c.374 0 .715-.07 1.024-.208.32-.139.592-.336.816-.592.224-.256.4-.56.528-.912.128-.363.192-.763.192-1.2v-.192c0-.427-.064-.816-.192-1.168a2.663 2.663 0 00-.544-.928 2.267 2.267 0 00-.816-.592 2.286 2.286 0 00-1.008-.224c-.373 0-.714.07-1.024.208a2.474 2.474 0 00-.816.592c-.224.245-.4.55-.528.912a3.396 3.396 0 00-.192 1.168v.256c0 .907.235 1.616.704 2.128.48.501 1.099.752 1.856.752zm12.741-.256h-.192a2.237 2.237 0 01-.496.64c-.192.181-.405.33-.64.448a2.754 2.754 0 01-.72.256 3.032 3.032 0 01-.736.096c-.533 0-1.029-.09-1.488-.272a3.672 3.672 0 01-1.216-.784 3.757 3.757 0 01-.816-1.264c-.192-.512-.288-1.093-.288-1.744v-.256c0-.64.102-1.21.304-1.712.203-.512.475-.939.816-1.28a3.398 3.398 0 011.2-.8 3.926 3.926 0 011.456-.272c.544 0 1.051.123 1.52.368.48.235.848.603 1.104 1.104h.192V29.8h1.248V41h-1.248v-1.216zm-2.656.256c.374 0 .72-.07 1.04-.208.32-.139.598-.336.832-.592.246-.256.438-.56.576-.912.139-.363.208-.763.208-1.2v-.192c0-.427-.069-.816-.208-1.168a2.713 2.713 0 00-.576-.928 2.378 2.378 0 00-.848-.592 2.391 2.391 0 00-1.024-.224c-.373 0-.725.07-1.056.208a2.6 2.6 0 00-.848.592c-.234.256-.421.56-.56.912a3.396 3.396 0 00-.192 1.168v.256c0 .448.064.848.192 1.2.139.352.326.656.56.912.246.245.528.437.848.576.32.128.672.192 1.056.192zm23.53-1.856a3.962 3.962 0 01-.448 1.216 3.48 3.48 0 01-.784.976 3.57 3.57 0 01-1.12.624 4.29 4.29 0 01-1.424.224c-.555 0-1.083-.09-1.584-.272a3.9 3.9 0 01-1.296-.784 3.956 3.956 0 01-.896-1.28c-.213-.501-.32-1.077-.32-1.728v-.192c0-.64.107-1.216.32-1.728.224-.512.523-.944.896-1.296a3.98 3.98 0 011.296-.816 4.388 4.388 0 011.584-.288c.501 0 .965.075 1.392.224.427.15.8.363 1.12.64.331.267.597.587.8.96.213.373.357.779.432 1.216l-1.248.288a2.39 2.39 0 00-.24-.8 1.995 1.995 0 00-.496-.688 2.167 2.167 0 00-.752-.48 2.833 2.833 0 00-1.04-.176c-.384 0-.747.075-1.088.224a2.605 2.605 0 00-.88.608 2.8 2.8 0 00-.608.928 3.281 3.281 0 00-.208 1.184v.192c0 .448.069.853.208 1.216.149.352.352.65.608.896.256.245.555.437.896.576.341.128.709.192 1.104.192.395 0 .736-.059 1.024-.176.299-.128.549-.288.752-.48a2.22 2.22 0 00.496-.688c.128-.256.213-.523.256-.8l1.248.288zm9.861-1.056c0 .661-.112 1.248-.336 1.76a3.862 3.862 0 01-.864 1.28 3.732 3.732 0 01-1.28.784 4.22 4.22 0 01-1.504.272c-.533 0-1.04-.09-1.52-.272a3.768 3.768 0 01-1.264-.784 4.075 4.075 0 01-.88-1.28c-.213-.512-.32-1.099-.32-1.76v-.192c0-.65.107-1.227.32-1.728.224-.512.517-.944.88-1.296.373-.352.8-.619 1.28-.8a4.22 4.22 0 011.504-.272c.523 0 1.024.09 1.504.272.48.181.901.448 1.264.8.373.352.667.784.88 1.296.224.501.336 1.077.336 1.728v.192zm-3.984 2.912c.384 0 .736-.064 1.056-.192.331-.139.619-.336.864-.592.245-.256.437-.56.576-.912.139-.363.208-.768.208-1.216v-.192c0-.427-.069-.816-.208-1.168a2.743 2.743 0 00-.576-.928 2.542 2.542 0 00-.864-.592 2.539 2.539 0 00-1.056-.224c-.373 0-.725.075-1.056.224a2.542 2.542 0 00-.864.592 2.743 2.743 0 00-.576.928 3.154 3.154 0 00-.208 1.168v.192c0 .448.069.853.208 1.216.139.352.331.656.576.912.245.256.528.453.848.592.331.128.688.192 1.072.192zm13.925.96h-1.248v-5.696c0-.373-.086-.677-.256-.912-.171-.245-.443-.368-.816-.368-.352 0-.64.133-.864.4-.214.256-.32.656-.32 1.2V41h-1.248v-5.76c0-.352-.096-.64-.288-.864a.942.942 0 00-.768-.352c-.384 0-.683.139-.896.416-.203.277-.304.64-.304 1.088V41h-1.248v-7.936h1.248v.864h.192c.138-.373.341-.645.608-.816.266-.181.581-.272.944-.272.384 0 .698.101.944.304.256.203.432.464.528.784h.192c.362-.725.938-1.088 1.728-1.088.597 0 1.056.192 1.376.576.33.373.496.864.496 1.472V41zm3.125 3.2h-1.248V33.064h1.248v1.248h.192c.277-.48.661-.843 1.152-1.088a3.405 3.405 0 011.6-.384c.49 0 .954.09 1.392.272.437.181.821.443 1.152.784.341.341.608.763.8 1.264.202.501.304 1.072.304 1.712v.32c0 .65-.096 1.227-.288 1.728a3.564 3.564 0 01-.8 1.264c-.331.341-.72.603-1.168.784-.448.17-.923.256-1.424.256-.256 0-.518-.032-.784-.096a3.24 3.24 0 01-.768-.256 3.915 3.915 0 01-.656-.448 2.485 2.485 0 01-.512-.64h-.192V44.2zm2.656-4.16c.384 0 .736-.064 1.056-.192.32-.139.597-.33.832-.576.245-.245.432-.544.56-.896a3.22 3.22 0 00.208-1.184v-.32c0-.427-.07-.81-.208-1.152a2.417 2.417 0 00-.56-.896 2.396 2.396 0 00-.848-.592 2.588 2.588 0 00-1.04-.208c-.374 0-.72.075-1.04.224-.32.139-.603.336-.848.592a2.858 2.858 0 00-.56.928 3.154 3.154 0 00-.208 1.168v.192c0 .437.069.837.208 1.2.138.352.325.656.56.912.245.256.528.453.848.592.32.139.666.208 1.04.208zm6.181-.192h2.88v-8.896h-2.784V29.8h4.032v10.048h2.88V41h-7.008v-1.152zm10.708-2.432c.032.79.278 1.424.736 1.904.459.48 1.099.72 1.92.72.374 0 .699-.043.976-.128.278-.085.512-.203.704-.352.203-.15.363-.32.48-.512a2.9 2.9 0 00.304-.64l1.184.32a3.529 3.529 0 01-1.248 1.808c-.597.459-1.408.688-2.432.688a4.185 4.185 0 01-1.568-.288 3.631 3.631 0 01-1.216-.848 3.91 3.91 0 01-.8-1.296 4.618 4.618 0 01-.288-1.664v-.384c0-.555.096-1.072.288-1.552a3.7 3.7 0 01.832-1.232 3.713 3.713 0 011.232-.816 3.95 3.95 0 011.552-.304c.651 0 1.211.123 1.68.368.48.235.87.528 1.168.88.31.352.534.736.672 1.152.15.416.224.8.224 1.152v1.024h-6.4zm2.656-3.392c-.352 0-.682.059-.992.176a2.508 2.508 0 00-.8.464 2.68 2.68 0 00-.56.72c-.138.267-.229.56-.272.88h5.12a2.21 2.21 0 00-.256-.928 2.115 2.115 0 00-.56-.704 2.463 2.463 0 00-.784-.448 2.556 2.556 0 00-.896-.16zm5.957-.96h2.496V29.8h1.248v3.264h3.072v1.152h-3.072v5.152c0 .32.144.48.432.48h2.256V41h-2.704c-.362 0-.661-.117-.896-.352-.224-.235-.336-.533-.336-.896v-5.536h-2.496v-1.152zm10.981 4.352c.032.79.277 1.424.736 1.904.459.48 1.099.72 1.92.72.373 0 .699-.043.976-.128s.512-.203.704-.352c.203-.15.363-.32.48-.512.128-.203.229-.416.304-.64l1.184.32a3.529 3.529 0 01-1.248 1.808c-.597.459-1.408.688-2.432.688a4.185 4.185 0 01-1.568-.288 3.621 3.621 0 01-1.216-.848 3.91 3.91 0 01-.8-1.296 4.618 4.618 0 01-.288-1.664v-.384c0-.555.096-1.072.288-1.552a3.7 3.7 0 01.832-1.232 3.713 3.713 0 011.232-.816c.48-.203.997-.304 1.552-.304.651 0 1.211.123 1.68.368.48.235.869.528 1.168.88.309.352.533.736.672 1.152.149.416.224.8.224 1.152v1.024h-6.4zm2.656-3.392c-.352 0-.683.059-.992.176a2.497 2.497 0 00-.8.464 2.66 2.66 0 00-.56.72 2.65 2.65 0 00-.272.88h5.12a2.225 2.225 0 00-.256-.928 2.128 2.128 0 00-.56-.704 2.463 2.463 0 00-.784-.448 2.56 2.56 0 00-.896-.16z" fill="#2D2A50"/></svg>